<?xml version="1.0" standalone="no"?>
<!DOCTYPE svg PUBLIC "-//W3C//DTD SVG 20010904//EN"
 "http://www.w3.org/TR/2001/REC-SVG-20010904/DTD/svg10.dtd">
<svg version="1.0" xmlns="http://www.w3.org/2000/svg"
 width="204.000000pt" height="192.000000pt" viewBox="0 0 204.000000 192.000000"
 preserveAspectRatio="xMidYMid meet">

<g transform="translate(0.000000,192.000000) scale(0.100000,-0.100000)"
fill="#000000" stroke="none">
<path d="M999 1429 c-10 -6 -7 -9 14 -9 29 0 35 5 14 13 -8 3 -20 1 -28 -4z"/>
<path d="M973 1378 c6 -19 79 -17 84 2 3 10 2 11 -4 4 -9 -14 -63 -16 -63 -3
0 5 -5 9 -11 9 -6 0 -9 -6 -6 -12z"/>
<path d="M870 1331 c-54 -6 -54 -6 -63 -46 -13 -62 -3 -155 23 -198 42 -70 86
-75 142 -17 21 23 38 50 38 60 0 27 27 25 35 -1 13 -39 75 -99 104 -99 34 0
71 26 71 49 0 10 3 21 7 25 12 12 15 151 4 192 l-11 39 -147 1 c-82 1 -173 -1
-203 -5z m50 -76 c54 -19 160 -19 205 -1 31 13 37 13 50 0 8 -9 13 -20 10 -25
-3 -5 -1 -17 4 -28 10 -18 8 -19 -47 -14 -45 4 -62 2 -74 -11 -20 -19 -61 -21
-76 -3 -14 17 -81 21 -117 7 -31 -12 -45 -6 -27 12 7 7 12 24 12 38 0 22 7 40
15 40 2 0 22 -7 45 -15z"/>
<path d="M828 714 c-33 -18 -33 -15 -8 -63 21 -42 69 -88 108 -102 22 -9 23
-11 10 -27 -9 -9 -19 -28 -23 -42 -3 -14 -9 -33 -11 -42 -4 -15 -1 -15 33 -6
49 13 61 24 71 61 12 45 39 44 52 -3 6 -21 18 -41 28 -45 21 -9 82 -24 82 -20
0 17 -34 93 -46 102 -14 10 -11 14 17 28 56 29 133 127 112 144 -4 4 -20 12
-34 18 -26 11 -28 9 -55 -45 -52 -102 -152 -128 -230 -60 -18 16 -40 49 -50
73 -19 50 -18 50 -56 29z"/>
</g>
</svg>
