<?xml version="1.0" standalone="no"?>
<!DOCTYPE svg PUBLIC "-//W3C//DTD SVG 20010904//EN"
 "http://www.w3.org/TR/2001/REC-SVG-20010904/DTD/svg10.dtd">
<svg version="1.0" xmlns="http://www.w3.org/2000/svg"
 width="204.000000pt" height="192.000000pt" viewBox="0 0 204.000000 192.000000"
 preserveAspectRatio="xMidYMid meet">

<g transform="translate(0.000000,192.000000) scale(0.100000,-0.100000)"
fill="#000000" stroke="none">
<path d="M0 960 l0 -960 44 0 45 0 4 43 4 42 1 -42 2 -42 280 -1 c154 0 280 3
279 7 -5 31 2 35 24 15 l23 -22 553 0 c492 0 552 2 541 15 -7 9 -10 18 -7 21
10 10 47 -7 47 -22 0 -11 20 -14 100 -14 l100 0 0 960 0 960 -1020 0 -1020 0
0 -960z m240 909 c0 -17 -10 -23 -31 -21 -4 1 -5 -7 -2 -17 3 -11 -2 -21 -11
-24 -9 -4 -16 -2 -16 3 0 6 -4 10 -10 10 -5 0 -10 -11 -10 -24 0 -23 -22 -41
-34 -29 -13 13 -6 53 10 53 8 0 13 3 11 8 -2 4 7 17 19 29 15 13 24 17 27 10
3 -7 8 0 12 16 6 22 10 25 21 16 8 -6 14 -20 14 -30z m1153 -14 c-3 -8 -11
-15 -19 -15 -8 0 -14 -3 -14 -7 0 -5 -4 -14 -9 -22 -7 -11 -12 -10 -28 6 -20
20 -20 20 9 46 15 15 28 32 28 39 1 7 9 3 20 -10 10 -13 16 -30 13 -37z m-624
29 c46 -9 38 -22 -14 -20 -43 1 -52 5 -38 19 8 9 13 9 52 1z m1181 -11 c0 -7
-13 -9 -39 -6 -31 4 -42 1 -60 -18 -25 -27 -27 -61 -6 -79 19 -16 19 -27 1
-27 -19 0 -40 50 -32 75 4 11 17 31 30 45 18 20 32 25 65 24 23 -1 41 -7 41
-14z m-1264 -39 c-19 -19 -19 -19 -4 -47 19 -37 41 -49 56 -30 17 24 15 33 -7
33 -11 0 -23 4 -26 10 -9 14 13 50 30 50 18 0 34 -30 27 -50 -4 -12 -1 -11 15
3 11 9 25 17 32 17 7 0 10 4 6 10 -3 5 -13 7 -23 4 -14 -5 -14 -4 -3 4 15 11
41 5 41 -9 0 -12 -96 -109 -108 -109 -5 0 -12 7 -16 15 -3 8 -12 15 -21 15 -8
0 -15 9 -15 21 0 11 -4 17 -10 14 -7 -4 -8 3 -4 22 9 38 13 43 30 43 14 0 13
-2 0 -16z m1223 7 c8 -5 12 -18 9 -29 -5 -18 -3 -19 13 -9 38 24 31 -5 -12
-49 -24 -24 -46 -39 -48 -33 -2 6 1 14 6 18 6 3 14 17 18 29 6 21 4 23 -14 17
-18 -5 -21 -2 -21 23 0 26 9 38 30 41 3 0 11 -3 19 -8z m79 -19 c6 -18 -15
-14 -22 4 -4 10 -1 14 6 12 6 -2 14 -10 16 -16z m-679 -23 c11 -18 11 -23 -1
-30 -20 -13 -26 -11 -33 11 -12 39 12 53 34 19z m-1190 -65 c-16 -20 -39 -17
-39 5 0 14 6 17 25 13 20 -3 23 -7 14 -18z m1142 0 c12 -14 11 -16 -5 -13 -11
2 -21 10 -24 17 -5 17 13 15 29 -4z m-11 -33 c0 -5 -7 -11 -14 -14 -10 -4 -13
-1 -9 9 6 15 23 19 23 5z m-50 -98 c58 -9 119 -17 137 -17 17 -1 29 -4 27 -8
-3 -4 15 -12 38 -18 48 -13 175 -72 198 -92 32 -27 60 -72 60 -95 0 -36 -26
-80 -60 -99 -21 -13 -26 -21 -17 -27 7 -5 3 -6 -11 -2 -13 4 -29 1 -37 -5 -8
-7 -33 -18 -57 -24 -23 -7 -44 -19 -46 -26 -3 -7 0 -10 7 -6 6 4 11 2 11 -3 0
-16 -18 -13 -28 5 -5 9 -12 15 -15 15 -21 -3 -26 2 -36 32 -42 126 -564 156
-701 40 -17 -14 -29 -31 -27 -37 3 -7 -1 -23 -9 -37 -9 -15 -13 -18 -14 -8 0
15 -98 55 -128 52 -7 0 -11 1 -8 4 9 9 -62 43 -78 37 -9 -3 -19 3 -26 18 -11
22 -10 22 4 4 23 -29 31 -12 9 20 -16 25 -27 114 -13 111 3 0 22 15 42 35 25
24 34 38 25 42 -6 3 -3 4 9 1 11 -3 39 4 63 15 67 33 194 68 301 84 70 10 286
4 380 -11z m-690 -27 c0 -2 -7 -7 -16 -10 -8 -3 -12 -2 -9 4 6 10 25 14 25 6z
m-92 -70 c-7 -8 -15 -12 -17 -11 -5 6 10 25 20 25 5 0 4 -6 -3 -14z m-198
-205 c0 -3 -20 -6 -45 -6 -42 0 -59 9 -34 17 16 5 79 -3 79 -11z m1748 -8 c-2
-15 -10 -28 -20 -31 -10 -2 -20 -12 -23 -21 -4 -14 -63 -61 -76 -61 -3 0 -6
16 -7 35 -2 29 0 34 15 28 10 -3 23 -10 30 -15 9 -7 11 -2 8 21 -3 24 2 35 23
50 37 28 52 26 50 -6z m-1856 -25 c-22 -22 -14 -63 18 -86 17 -13 30 -18 30
-13 0 5 3 16 6 24 3 10 -4 17 -21 21 -19 5 -25 11 -21 22 3 9 6 20 6 25 0 6
12 9 28 7 21 -2 27 -8 25 -25 -2 -21 -1 -22 25 -11 38 17 38 17 16 33 -16 12
-16 14 -3 15 9 0 22 -7 29 -15 10 -12 2 -24 -42 -68 l-54 -55 -31 27 c-45 39
-51 111 -9 111 6 0 5 -5 -2 -12z m1150 -81 c100 -25 119 -46 152 -167 10 -36
21 -72 24 -80 3 -8 5 -26 6 -39 1 -25 38 -46 63 -36 8 2 11 0 8 -5 -3 -5 -1
-27 6 -49 15 -51 -1 -95 -42 -113 -16 -7 -29 -20 -30 -28 0 -8 -1 -53 -2 -99
l-2 -85 -100 -62 c-55 -34 -105 -66 -110 -71 -70 -59 -82 -63 -137 -52 -32 7
-90 9 -148 5 -91 -6 -97 -5 -122 18 -32 31 -156 110 -214 139 l-44 21 0 104
c0 67 -4 101 -10 97 -19 -12 -70 51 -70 86 0 55 21 99 46 99 13 0 25 3 27 8 3
4 12 48 21 99 23 134 39 168 90 193 24 11 70 25 102 30 85 13 417 4 486 -13z
m577 -16 c8 -5 9 -11 3 -15 -13 -8 -42 3 -42 15 0 11 21 11 39 0z m-319 -7 c0
-8 -19 -13 -24 -6 -3 5 1 9 9 9 8 0 15 -2 15 -3z m-940 -109 c0 -8 -3 -16 -7
-18 -5 -3 -8 5 -8 18 0 13 3 21 8 18 4 -2 7 -10 7 -18z m950 -37 c0 -5 -11 -1
-25 8 -14 9 -25 18 -25 20 0 2 11 -2 25 -8 14 -6 25 -15 25 -20z m277 16 c-3
-3 -12 -4 -19 -1 -8 3 -5 6 6 6 11 1 17 -2 13 -5z m-143 -28 c-10 -8 -21 -12
-24 -10 -5 6 21 24 34 24 6 0 1 -6 -10 -14z m-124 -10 c0 -2 -7 -7 -16 -10 -8
-3 -12 -2 -9 4 6 10 25 14 25 6z m-1300 -271 c0 -14 -4 -25 -9 -25 -6 0 -18
-13 -28 -30 -9 -16 -21 -30 -26 -30 -4 0 -6 4 -3 9 3 5 -1 14 -9 21 -13 10
-10 17 17 46 38 40 58 43 58 9z m1715 -18 l20 -20 -27 16 c-37 23 -67 21 -95
-5 -29 -27 -29 -55 -2 -84 l21 -23 38 40 c20 21 45 39 55 39 13 0 9 -9 -21
-42 -51 -58 -74 -74 -74 -54 0 9 -5 16 -10 16 -6 0 -19 8 -30 18 -26 24 -21
77 10 100 51 36 79 36 115 -1z m-50 -17 c4 -6 11 -7 17 -4 13 8 -12 -39 -26
-48 -18 -12 -25 -9 -37 14 -10 18 -8 24 7 35 21 16 31 16 39 3z m-1748 -40 c2
-8 -1 -21 -6 -28 -7 -11 -12 -12 -29 -1 -16 10 -18 16 -8 31 13 21 40 20 43
-2z m-37 -71 c0 -12 -27 -11 -35 1 -11 17 5 32 21 19 8 -6 14 -15 14 -20z
m1435 -149 c3 -5 1 -10 -4 -10 -6 0 -11 5 -11 10 0 6 2 10 4 10 3 0 8 -4 11
-10z m-648 -176 c-3 -3 -12 -4 -19 -1 -8 3 -5 6 6 6 11 1 17 -2 13 -5z m1053
-100 c0 -13 -5 -24 -11 -24 -6 0 -19 -10 -29 -22 -18 -22 -20 -22 -36 -6 -17
16 -16 19 20 53 41 38 56 38 56 -1z m-1148 -14 c-11 -29 -28 -40 -42 -27 -10
10 -10 8 -1 -10 8 -17 8 -22 -4 -27 -9 -3 -15 0 -15 9 0 8 -5 15 -11 15 -6 0
-9 -10 -8 -22 4 -30 -8 -49 -26 -41 -18 6 -20 53 -2 53 17 0 49 38 42 50 -3 5
4 7 16 5 12 -2 19 -2 15 2 -3 3 -1 12 5 19 14 17 39 -4 31 -26z m-642 9 c0 -5
-4 -7 -10 -4 -5 3 -24 -8 -41 -25 -18 -16 -34 -29 -36 -27 -7 8 10 37 22 37 7
0 15 7 19 15 6 17 46 21 46 4z m30 1 c0 -5 -4 -10 -10 -10 -5 0 -10 5 -10 10
0 6 5 10 10 10 6 0 10 -4 10 -10z m1184 -14 c15 -13 26 -26 26 -30 0 -4 -16
-24 -35 -44 -19 -20 -35 -40 -35 -44 0 -5 -7 -8 -15 -8 -18 0 -20 21 -2 39 10
11 9 13 -4 8 -33 -11 -53 39 -25 62 10 9 19 7 37 -9 21 -17 22 -21 9 -31 -13
-9 -13 -10 0 -5 8 3 23 9 33 12 21 8 23 34 2 34 -8 0 -15 6 -15 13 0 6 -13 13
-29 14 -38 3 -76 -37 -73 -77 3 -36 -14 -40 -20 -5 -4 17 3 36 21 60 33 43 86
48 125 11z m-1146 -15 c13 -28 11 -32 -27 -72 -35 -37 -41 -40 -47 -25 -4 11
-1 22 7 28 11 8 11 9 -3 5 -9 -3 -23 2 -32 12 -14 15 -14 19 0 39 12 18 19 20
36 11 13 -7 18 -17 15 -30 -6 -22 1 -24 26 -5 19 14 23 36 7 36 -5 0 -10 7
-10 15 0 24 14 17 28 -14z m1636 -33 c9 -35 8 -38 -18 -38 -13 0 -27 7 -30 16
-4 12 -2 15 9 10 10 -4 15 1 15 14 0 27 16 25 24 -2z m-1744 -64 c0 -8 -4 -12
-10 -9 -5 3 -10 10 -10 16 0 5 5 9 10 9 6 0 10 -7 10 -16z m1160 -5 c0 -5 -4
-9 -10 -9 -5 0 -10 7 -10 16 0 8 5 12 10 9 6 -3 10 -10 10 -16z"/>
<path d="M1850 1214 c0 -8 5 -12 10 -9 6 4 8 11 5 16 -9 14 -15 11 -15 -7z"/>
<path d="M1147 999 c-31 -8 -57 -27 -57 -40 0 -5 36 -9 80 -9 44 0 80 4 80 9
0 25 -65 51 -103 40z"/>
<path d="M811 925 c-20 -9 -31 -19 -25 -24 11 -10 146 -32 153 -25 9 8 -43 53
-69 58 -14 3 -40 -1 -59 -9z"/>
<path d="M1130 859 c-13 -8 -13 -10 0 -19 21 -14 30 -12 30 4 0 20 -13 27 -30
15z"/>
<path d="M870 614 c0 -11 23 -49 34 -56 6 -4 27 -5 46 -2 19 3 63 1 98 -6 63
-11 102 -7 102 11 0 5 -10 9 -22 9 -13 0 -70 11 -128 25 -110 26 -130 29 -130
19z"/>
</g>
</svg>
